<svg xmlns="http://www.w3.org/2000/svg" width="48" height="48" viewBox="0 0 56 48" fill="none">
<g filter="url(#filter0_d_2_576)">
<path d="M51.9469 12.5043L48.7023 27.2131C48.3361 28.875 47.4081 30.3761 46.0897 31.4407C44.7673 32.5085 43.1014 33.0967 41.3993 33.0967C40.364 33.0967 39.5247 32.2573 39.5247 31.222C39.5247 30.1864 40.364 29.3474 41.3993 29.3474C43.1615 29.3474 44.6589 28.1378 45.0413 26.4056L48.2855 11.6968C48.5085 10.6857 49.5087 10.0466 50.5201 10.2697C51.5312 10.4927 52.1699 11.4932 51.9469 12.5043ZM46.9294 42.4698C46.9294 45.5193 44.4487 48 41.3993 48C38.3498 48 35.8691 45.5193 35.8691 42.4698C35.8691 41.8469 35.9742 41.2482 36.165 40.689H28.0747C28.2655 41.2482 28.3706 41.8469 28.3706 42.4698C28.3706 45.5193 25.8895 48 22.8401 48C19.791 48 17.3099 45.5193 17.3099 42.4698C17.3099 41.8469 17.415 41.2482 17.6058 40.689H16.8412C13.7405 40.689 11.2173 38.1661 11.2173 35.0651C11.2173 35.049 11.2195 35.0339 11.2198 35.0182C11.2195 35.0024 11.2173 34.9871 11.2173 34.9713C11.2173 32.6957 12.5767 30.7332 14.5249 29.8484L12.2965 9.37537C11.8662 6.17175 9.10901 3.75842 5.87463 3.75842C4.83936 3.75842 4 2.91907 4 1.88379C4 0.848145 4.83936 0.00915527 5.87463 0.00915527C10.991 0.00915527 15.3511 3.83459 16.0165 8.90698L16.0212 8.94836L18.2419 29.3474H32.0261C33.0614 29.3474 33.9008 30.1868 33.9008 31.222C33.9008 32.2573 33.0614 33.0967 32.0261 33.0967H16.8412C15.8077 33.0967 14.9666 33.9375 14.9666 34.9713C14.9666 34.9871 14.9647 35.0024 14.9644 35.0182C14.9647 35.0339 14.9666 35.0493 14.9666 35.0651C14.9666 36.0989 15.8077 36.9397 16.8412 36.9397H41.3993C44.4487 36.9397 46.9294 39.4204 46.9294 42.4698ZM22.8401 40.689C21.8583 40.689 21.0592 41.4877 21.0592 42.4698C21.0592 43.452 21.8583 44.2507 22.8401 44.2507C23.8223 44.2507 24.621 43.452 24.621 42.4698C24.621 41.4877 23.8223 40.689 22.8401 40.689ZM43.1802 42.4698C43.1802 41.4877 42.3811 40.689 41.3993 40.689C40.4171 40.689 39.6184 41.4877 39.6184 42.4698C39.6184 43.452 40.4171 44.2507 41.3993 44.2507C42.3811 44.2507 43.1802 43.4517 43.1802 42.4698ZM19.7632 11.9524C19.0685 11.1848 19.1274 9.99939 19.895 9.30469L28.6306 1.39856C30.6741 -0.466187 33.7528 -0.466187 35.7963 1.39856L44.5319 9.30469C45.2994 9.99939 45.3584 11.1848 44.6637 11.9524C44.2938 12.3615 43.7844 12.5691 43.2732 12.5691C42.9147 12.5691 42.5558 12.4651 42.2427 12.2582V17.5983C42.2427 20.5104 39.8751 22.8798 36.9652 22.8798H27.3679C24.458 22.8798 22.0905 20.5104 22.0905 17.5983V12.3175C21.3412 12.7507 20.3671 12.6196 19.7632 11.9524ZM25.8339 8.98645C25.8361 9.02454 25.8397 9.06262 25.8397 9.10107V17.5979C25.8397 18.4431 26.5253 19.1305 27.3679 19.1305H36.9652C37.8079 19.1305 38.4934 18.4431 38.4934 17.5979V9.10107C38.4934 9.03516 38.4971 8.96997 38.5037 8.90588L33.2771 4.17554C33.2749 4.17334 33.2723 4.17114 33.2701 4.16895C32.6677 3.61853 31.7592 3.61853 31.1567 4.16895C31.1545 4.17114 31.1523 4.17334 31.1501 4.17554L25.8339 8.98645Z" fill="#3B3C45"/>
<mask id="mask0_2_576" style="mask-type:alpha" maskUnits="userSpaceOnUse" x="4" y="0" width="48" height="48">
<path d="M51.9469 12.5043L48.7023 27.2131C48.3361 28.875 47.4081 30.3761 46.0897 31.4407C44.7673 32.5085 43.1014 33.0967 41.3993 33.0967C40.364 33.0967 39.5247 32.2573 39.5247 31.222C39.5247 30.1864 40.364 29.3474 41.3993 29.3474C43.1615 29.3474 44.6589 28.1378 45.0413 26.4056L48.2855 11.6968C48.5085 10.6857 49.5087 10.0466 50.5201 10.2697C51.5312 10.4927 52.1699 11.4932 51.9469 12.5043ZM46.9294 42.4698C46.9294 45.5193 44.4487 48 41.3993 48C38.3498 48 35.8691 45.5193 35.8691 42.4698C35.8691 41.8469 35.9742 41.2482 36.165 40.689H28.0747C28.2655 41.2482 28.3706 41.8469 28.3706 42.4698C28.3706 45.5193 25.8895 48 22.8401 48C19.791 48 17.3099 45.5193 17.3099 42.4698C17.3099 41.8469 17.415 41.2482 17.6058 40.689H16.8412C13.7405 40.689 11.2173 38.1661 11.2173 35.0651C11.2173 35.049 11.2195 35.0339 11.2198 35.0182C11.2195 35.0024 11.2173 34.9871 11.2173 34.9713C11.2173 32.6957 12.5767 30.7332 14.5249 29.8484L12.2965 9.37537C11.8662 6.17175 9.10901 3.75842 5.87463 3.75842C4.83936 3.75842 4 2.91907 4 1.88379C4 0.848145 4.83936 0.00915527 5.87463 0.00915527C10.991 0.00915527 15.3511 3.83459 16.0165 8.90698L16.0212 8.94836L18.2419 29.3474H32.0261C33.0614 29.3474 33.9008 30.1868 33.9008 31.222C33.9008 32.2573 33.0614 33.0967 32.0261 33.0967H16.8412C15.8077 33.0967 14.9666 33.9375 14.9666 34.9713C14.9666 34.9871 14.9647 35.0024 14.9644 35.0182C14.9647 35.0339 14.9666 35.0493 14.9666 35.0651C14.9666 36.0989 15.8077 36.9397 16.8412 36.9397H41.3993C44.4487 36.9397 46.9294 39.4204 46.9294 42.4698ZM22.8401 40.689C21.8583 40.689 21.0592 41.4877 21.0592 42.4698C21.0592 43.452 21.8583 44.2507 22.8401 44.2507C23.8223 44.2507 24.621 43.452 24.621 42.4698C24.621 41.4877 23.8223 40.689 22.8401 40.689ZM43.1802 42.4698C43.1802 41.4877 42.3811 40.689 41.3993 40.689C40.4171 40.689 39.6184 41.4877 39.6184 42.4698C39.6184 43.452 40.4171 44.2507 41.3993 44.2507C42.3811 44.2507 43.1802 43.4517 43.1802 42.4698ZM19.7632 11.9524C19.0685 11.1848 19.1274 9.99939 19.895 9.30469L28.6306 1.39856C30.6741 -0.466187 33.7528 -0.466187 35.7963 1.39856L44.5319 9.30469C45.2994 9.99939 45.3584 11.1848 44.6637 11.9524C44.2938 12.3615 43.7844 12.5691 43.2732 12.5691C42.9147 12.5691 42.5558 12.4651 42.2427 12.2582V17.5983C42.2427 20.5104 39.8751 22.8798 36.9652 22.8798H27.3679C24.458 22.8798 22.0905 20.5104 22.0905 17.5983V12.3175C21.3412 12.7507 20.3671 12.6196 19.7632 11.9524ZM25.8339 8.98645C25.8361 9.02454 25.8397 9.06262 25.8397 9.10107V17.5979C25.8397 18.4431 26.5253 19.1305 27.3679 19.1305H36.9652C37.8079 19.1305 38.4934 18.4431 38.4934 17.5979V9.10107C38.4934 9.03516 38.4971 8.96997 38.5037 8.90588L33.2771 4.17554C33.2749 4.17334 33.2723 4.17114 33.2701 4.16895C32.6677 3.61853 31.7592 3.61853 31.1567 4.16895C31.1545 4.17114 31.1523 4.17334 31.1501 4.17554L25.8339 8.98645Z" fill="#3B3C45"/>
</mask>
<g mask="url(#mask0_2_576)">
<rect x="19" y="-8" width="26" height="32" fill="#F7A804"/>
</g>
</g>
<defs>
<filter id="filter0_d_2_576" x="0" y="0" width="55.9913" height="56" filterUnits="userSpaceOnUse" color-interpolation-filters="sRGB">
<feFlood flood-opacity="0" result="BackgroundImageFix"/>
<feColorMatrix in="SourceAlpha" type="matrix" values="0 0 0 0 0 0 0 0 0 0 0 0 0 0 0 0 0 0 127 0" result="hardAlpha"/>
<feOffset dy="4"/>
<feGaussianBlur stdDeviation="2"/>
<feComposite in2="hardAlpha" operator="out"/>
<feColorMatrix type="matrix" values="0 0 0 0 0 0 0 0 0 0 0 0 0 0 0 0 0 0 0.25 0"/>
<feBlend mode="normal" in2="BackgroundImageFix" result="effect1_dropShadow_2_576"/>
<feBlend mode="normal" in="SourceGraphic" in2="effect1_dropShadow_2_576" result="shape"/>
</filter>
</defs>
</svg>